<svg width="75" height="75" viewBox="0 0 75 75" fill="none" xmlns="http://www.w3.org/2000/svg">
<path d="M18.9387 50.1138L12.3508 28.5661C12.2707 28.304 12.1404 28.0607 12.0231 27.8131C11.4222 26.5437 11.4646 24.0373 15.5332 21.8284C21.1531 18.7771 49.545 8.76384 52.2344 13.2737M43.1184 45.7326C34.2688 48.554 24.7237 51.982 17.6597 54.504C10.8412 57.9214 18.6975 62.185 21.4673 62.6713C23.1586 62.9682 35.744 58.9403 46.1071 55.5083" stroke="#FCC015" stroke-opacity="0.5" stroke-width="3" stroke-linecap="round"/>
<path d="M49.4943 23.1851L52.6241 22.2282M56.4919 51.67L62.7514 49.7563M41.9147 26.3774C41.5069 25.0437 41.425 21.9772 44.359 20.3802C48.0265 18.3839 57.9535 14.474 59.9591 18.2357C61.9647 21.9974 67.7236 43.6321 67.8779 44.1369C68.0322 44.6417 69.9894 51.0432 66.0772 52.2393L55.1232 55.5883C52.7759 56.3059 50.7217 55.184 49.4985 51.1831L41.9147 26.3774Z" stroke="#FCC015" stroke-width="3" stroke-linecap="round"/>
</svg>
